<svg width="248" height="232" viewBox="0 0 248 232" fill="none" xmlns="http://www.w3.org/2000/svg">
<g id="Logo">
<path id="Logo_2" fill-rule="evenodd" clip-rule="evenodd" d="M153.199 162.093C156.279 160.886 157.524 157.284 156.088 154.304C154.653 151.324 151.08 150.099 147.985 151.265C134.559 156.318 119.813 156.966 105.913 153.023C90.0839 148.533 76.4484 138.4 67.5833 124.54C58.7182 110.679 55.2378 94.051 57.7998 77.7985C60.3618 61.546 68.7888 46.7951 81.4879 36.3338C94.1871 25.8725 110.279 20.4257 126.721 21.0227C143.163 21.6198 158.817 28.2195 170.724 39.5744C182.631 50.9292 189.966 66.2525 191.342 82.648C192.551 97.0464 189.091 111.396 181.561 123.605C179.825 126.42 180.343 130.161 182.992 132.141C185.642 134.121 189.417 133.588 191.191 130.796C200.453 116.221 204.733 98.9635 203.279 81.6459C201.657 62.3323 193.017 44.2816 178.991 30.9058C164.965 17.5299 146.524 9.75563 127.156 9.05226C107.787 8.3489 88.8312 14.7652 73.8718 27.0885C58.9124 39.4117 48.9855 56.7881 45.9675 75.9333C42.9495 95.0785 47.0494 114.666 57.4924 130.994C67.9353 147.321 83.9977 159.258 102.644 164.547C119.363 169.29 137.12 168.393 153.199 162.093ZM105.942 43.944C104.6 40.9478 105.935 37.3982 109.056 36.3804C114.31 34.6672 119.799 33.7362 125.346 33.6269C132.878 33.4786 140.363 34.8486 147.355 37.6554C154.346 40.4622 160.701 44.6482 166.04 49.9638C169.971 53.8782 173.293 58.3462 175.904 63.2168C177.455 66.1103 175.964 69.5972 172.923 70.8336C169.881 72.07 166.447 70.5804 164.814 67.7323C162.858 64.3201 160.451 61.1764 157.651 58.3888C153.444 54.1995 148.436 50.9005 142.925 48.6884C137.415 46.4764 131.516 45.3966 125.58 45.5135C121.63 45.5914 117.717 46.1979 113.944 47.3102C110.795 48.2387 107.285 46.9402 105.942 43.944ZM86.8841 129.511C89.2119 131.826 92.9797 131.397 95.0356 128.837C97.0915 126.278 96.6483 122.561 94.3873 120.18C90.006 115.567 86.6549 110.045 84.5894 103.979C82.5239 97.9124 81.8092 91.4928 82.4654 85.1648C82.804 81.8992 80.887 78.684 77.6963 77.9107C74.5056 77.1375 71.2588 79.0967 70.8273 82.3513C69.695 90.8912 70.5412 99.6055 73.3349 107.811C76.1286 116.016 80.7759 123.436 86.8841 129.511ZM126.451 93.7081C129.45 93.7081 131.881 91.277 131.881 88.2781C131.881 85.2792 129.45 82.8481 126.451 82.8481C123.452 82.8481 121.021 85.2792 121.021 88.2781C121.021 91.277 123.452 93.7081 126.451 93.7081ZM126.451 121.22C144.644 121.22 159.393 106.634 159.393 88.6401C159.393 70.6466 144.644 56.0601 126.451 56.0601C108.257 56.0601 93.5086 70.6466 93.5086 88.6401C93.5086 106.634 108.257 121.22 126.451 121.22ZM126.451 108.692C115.253 108.692 106.176 99.7145 106.176 88.6401C106.176 77.5657 115.253 68.5882 126.451 68.5882C137.648 68.5882 146.725 77.5657 146.725 88.6401C146.725 99.7145 137.648 108.692 126.451 108.692ZM174.167 105.21C177.289 106.224 179.028 109.594 177.69 112.592C175.085 118.431 171.501 123.779 167.099 128.405L184.686 151.311C185.187 151.964 185.992 152.291 186.815 152.291C193.613 152.291 199.125 157.803 199.125 164.602C199.125 171.4 193.613 176.912 186.815 176.912C180.016 176.912 174.504 171.4 174.504 164.602C174.504 161.477 174.347 158.138 172.444 155.659L157.636 136.372C151.521 140.46 144.665 143.304 137.46 144.745C134.241 145.39 131.337 142.951 131.037 139.682C130.737 136.412 133.159 133.559 136.359 132.823C142.802 131.342 148.856 128.428 154.059 124.27C159.263 120.111 163.439 114.847 166.304 108.89C167.726 105.931 171.044 104.197 174.167 105.21ZM186.815 171.119C183.215 171.119 180.298 168.201 180.298 164.602C180.298 161.003 183.215 158.085 186.815 158.085C190.414 158.085 193.331 161.003 193.331 164.602C193.331 168.201 190.414 171.119 186.815 171.119ZM30.9122 187.288H4.22421C3.16821 187.288 2.35221 187.432 1.77621 187.72C1.39221 187.912 1.12021 188.264 0.960214 188.776C0.800214 189.256 0.720215 189.912 0.720215 190.744C0.720215 191.576 0.800214 192.248 0.960214 192.76C1.12021 193.272 1.44021 193.656 1.92021 193.912C2.40021 194.136 3.15221 194.248 4.17621 194.248H13.3922V218.344C13.3922 219.08 13.4082 219.64 13.4402 220.024C13.5042 220.376 13.6482 220.792 13.8722 221.272C14.1282 221.72 14.5442 222.04 15.1202 222.232C15.7282 222.424 16.5282 222.52 17.5202 222.52C18.5122 222.52 19.3122 222.424 19.9202 222.232C20.5282 222.04 20.9442 221.72 21.1682 221.272C21.4242 220.792 21.5682 220.376 21.6002 220.024C21.6642 219.672 21.6962 219.128 21.6962 218.392V194.248H30.8642C31.9202 194.248 32.7362 194.104 33.3122 193.816C33.6962 193.624 33.9682 193.288 34.1282 192.808C34.2882 192.296 34.3682 191.624 34.3682 190.792C34.3682 189.96 34.2882 189.288 34.1282 188.776C33.9682 188.264 33.6482 187.896 33.1682 187.672C32.6882 187.416 31.9362 187.288 30.9122 187.288ZM34.432 218.776C36.576 221.208 39.264 222.424 42.496 222.424C43.776 222.424 44.96 222.072 46.048 221.368C46.464 221.08 46.896 220.728 47.344 220.312C47.792 219.896 48.08 219.576 48.208 219.352C48.208 220.12 48.368 220.776 48.688 221.32C49.136 222.088 50.336 222.472 52.288 222.472C54.272 222.472 55.504 222.056 55.984 221.224C56.24 220.776 56.384 220.376 56.416 220.024C56.48 219.64 56.512 219.096 56.512 218.392V201.4C56.512 200.664 56.48 200.12 56.416 199.768C56.384 199.384 56.256 198.952 56.032 198.472C55.584 197.608 54.352 197.176 52.336 197.176C50.288 197.176 49.056 197.592 48.64 198.424C48.384 198.904 48.224 199.336 48.16 199.72C48.128 200.072 48.112 200.616 48.112 201.352V209.848C48.112 211.096 47.712 212.104 46.912 212.872C46.144 213.64 45.12 214.024 43.84 214.024C42.592 214.024 41.584 213.656 40.816 212.92C40.08 212.184 39.712 211.16 39.712 209.848V201.448C39.712 200.328 39.616 199.512 39.424 199C39.04 197.784 37.728 197.176 35.488 197.176C33.44 197.176 32.192 197.608 31.744 198.472C31.52 198.952 31.376 199.368 31.312 199.72C31.28 200.072 31.264 200.632 31.264 201.4V209.8C31.264 213.32 32.32 216.312 34.432 218.776ZM82.4053 200.92C80.2933 198.456 77.6373 197.224 74.4373 197.224C73.1253 197.224 71.9253 197.592 70.8373 198.328C70.4213 198.584 69.9893 198.92 69.5413 199.336C69.0933 199.752 68.8053 200.072 68.6773 200.296C68.6773 199.528 68.5173 198.872 68.1973 198.328C67.7493 197.592 66.5493 197.224 64.5973 197.224C62.5813 197.224 61.3493 197.624 60.9013 198.424C60.6453 198.872 60.4853 199.288 60.4213 199.672C60.3893 200.024 60.3733 200.552 60.3733 201.256V218.248C60.3733 218.984 60.3893 219.544 60.4213 219.928C60.4853 220.28 60.6293 220.696 60.8533 221.176C61.3013 222.04 62.5333 222.472 64.5493 222.472C66.5973 222.472 67.8293 222.04 68.2453 221.176C68.5013 220.728 68.6453 220.328 68.6773 219.976C68.7413 219.592 68.7733 219.032 68.7733 218.296V209.8C68.7733 208.552 69.1573 207.544 69.9253 206.776C70.7253 206.008 71.7493 205.624 72.9973 205.624C74.2773 205.624 75.2853 205.992 76.0213 206.728C76.7893 207.464 77.1733 208.488 77.1733 209.8V218.248C77.1733 219.336 77.2693 220.152 77.4613 220.696C77.8133 221.88 79.1253 222.472 81.3973 222.472C83.4453 222.472 84.6933 222.04 85.1413 221.176C85.3653 220.728 85.4933 220.328 85.5253 219.976C85.5893 219.592 85.6213 219.032 85.6213 218.296V209.848C85.6213 206.328 84.5493 203.352 82.4053 200.92ZM112.379 211.24C113.371 210.28 113.867 208.824 113.867 206.872C113.867 204.888 113.323 203.064 112.235 201.4C110.155 198.264 106.891 196.696 102.443 196.696C98.5387 196.696 95.2747 197.912 92.6507 200.344C90.0587 202.744 88.7627 205.96 88.7627 209.992C88.7627 213.192 89.7707 216.088 91.7867 218.68C92.8107 220.024 94.2347 221.112 96.0587 221.944C97.9147 222.744 100.027 223.144 102.395 223.144C109.211 223.144 112.619 221.72 112.619 218.872C112.619 218.264 112.411 217.528 111.995 216.664C111.259 215.224 110.379 214.504 109.355 214.504C108.843 214.504 108.203 214.68 107.435 215.032L106.907 215.224C105.851 215.608 104.395 215.8 102.539 215.8C101.483 215.8 100.427 215.496 99.3707 214.888C98.3147 214.28 97.7867 213.528 97.7867 212.632H109.163C110.347 212.632 111.419 212.168 112.379 211.24ZM105.563 206.728C105.563 207.752 104.955 208.264 103.739 208.264H97.6907C97.6907 207.304 98.2027 206.408 99.2267 205.576C100.251 204.712 101.275 204.28 102.299 204.28C103.355 204.28 104.155 204.504 104.699 204.952C105.275 205.4 105.563 205.992 105.563 206.728ZM145.99 187.288H119.302C118.246 187.288 117.43 187.432 116.854 187.72C116.47 187.912 116.198 188.264 116.038 188.776C115.878 189.256 115.798 189.912 115.798 190.744C115.798 191.576 115.878 192.248 116.038 192.76C116.198 193.272 116.518 193.656 116.998 193.912C117.478 194.136 118.23 194.248 119.254 194.248H128.47V218.344C128.47 219.08 128.486 219.64 128.518 220.024C128.582 220.376 128.726 220.792 128.95 221.272C129.206 221.72 129.622 222.04 130.198 222.232C130.806 222.424 131.606 222.52 132.598 222.52C133.59 222.52 134.39 222.424 134.998 222.232C135.606 222.04 136.022 221.72 136.246 221.272C136.502 220.792 136.646 220.376 136.678 220.024C136.742 219.672 136.774 219.128 136.774 218.392V194.248H145.942C146.998 194.248 147.814 194.104 148.39 193.816C148.774 193.624 149.046 193.288 149.206 192.808C149.366 192.296 149.446 191.624 149.446 190.792C149.446 189.96 149.366 189.288 149.206 188.776C149.046 188.264 148.726 187.896 148.246 187.672C147.766 187.416 147.014 187.288 145.99 187.288ZM165.014 198.52C164.63 198.04 164.134 197.704 163.526 197.512C162.918 197.32 162.358 197.192 161.846 197.128C161.334 197.032 160.694 196.984 159.926 196.984C159.19 196.984 158.326 197.256 157.334 197.8C156.342 198.344 155.686 198.776 155.366 199.096C155.078 199.416 154.854 199.688 154.694 199.912C154.694 199.368 154.518 198.84 154.166 198.328C153.686 197.592 152.486 197.224 150.566 197.224C148.518 197.224 147.27 197.656 146.822 198.52C146.598 198.968 146.454 199.384 146.39 199.768C146.358 200.12 146.342 200.664 146.342 201.4V218.248V219.64C146.406 220.568 146.694 221.256 147.206 221.704C147.878 222.248 148.982 222.52 150.518 222.52C152.534 222.52 153.782 222.104 154.262 221.272C154.518 220.792 154.662 220.376 154.694 220.024C154.758 219.64 154.79 219.08 154.79 218.344V208.264C154.79 207.4 155.158 206.664 155.894 206.056C156.662 205.448 157.478 205.144 158.342 205.144C159.206 205.144 159.894 205.272 160.406 205.528C160.95 205.784 161.51 205.912 162.086 205.912C163.238 205.912 164.118 205.304 164.726 204.088C165.334 202.872 165.638 201.752 165.638 200.728C165.638 199.704 165.43 198.968 165.014 198.52ZM170.138 200.392C167.45 202.888 166.106 206.056 166.106 209.896C166.106 212.456 166.778 214.76 168.122 216.808C169.498 218.824 171.178 220.36 173.162 221.416C175.146 222.44 177.194 222.952 179.306 222.952C181.418 222.952 183.45 222.472 185.402 221.512C187.386 220.52 189.066 219 190.442 216.952C191.818 214.872 192.506 212.504 192.506 209.848C192.506 206.008 191.178 202.856 188.522 200.392C185.866 197.896 182.81 196.648 179.354 196.648C175.898 196.648 172.826 197.896 170.138 200.392ZM179.258 214.504C178.202 214.504 177.162 214.12 176.138 213.352C175.114 212.552 174.602 211.384 174.602 209.848C174.602 208.28 175.098 207.096 176.09 206.296C177.082 205.496 178.154 205.096 179.306 205.096C180.458 205.096 181.53 205.48 182.522 206.248C183.514 207.016 184.01 208.184 184.01 209.752C184.01 211.32 183.482 212.504 182.426 213.304C181.37 214.104 180.314 214.504 179.258 214.504ZM221.179 203.608C221.819 202.488 222.139 201.608 222.139 200.968C222.139 199.848 221.307 198.792 219.643 197.8C218.523 197.128 217.643 196.792 217.003 196.792C216.363 196.792 215.851 196.936 215.467 197.224C215.083 197.48 214.795 197.752 214.603 198.04C214.443 198.296 214.187 198.728 213.835 199.336L207.547 211.432L201.259 199.336C200.811 198.472 200.379 197.832 199.963 197.416C199.579 196.968 199.035 196.744 198.331 196.744C197.627 196.744 196.667 197.096 195.451 197.8C193.787 198.792 192.955 199.864 192.955 201.016C192.955 201.688 193.275 202.552 193.915 203.608L203.899 220.696L204.331 221.224C204.587 221.576 205.019 221.928 205.627 222.28C206.267 222.6 206.923 222.76 207.595 222.76C208.299 222.76 209.003 222.552 209.707 222.136C210.411 221.688 210.923 221.192 211.243 220.648L221.179 203.608ZM246.207 211.24C247.199 210.28 247.695 208.824 247.695 206.872C247.695 204.888 247.151 203.064 246.063 201.4C243.983 198.264 240.719 196.696 236.271 196.696C232.367 196.696 229.103 197.912 226.479 200.344C223.887 202.744 222.591 205.96 222.591 209.992C222.591 213.192 223.599 216.088 225.615 218.68C226.639 220.024 228.063 221.112 229.887 221.944C231.743 222.744 233.855 223.144 236.223 223.144C243.039 223.144 246.447 221.72 246.447 218.872C246.447 218.264 246.239 217.528 245.823 216.664C245.087 215.224 244.207 214.504 243.183 214.504C242.671 214.504 242.031 214.68 241.263 215.032L240.735 215.224C239.679 215.608 238.223 215.8 236.367 215.8C235.311 215.8 234.255 215.496 233.199 214.888C232.143 214.28 231.615 213.528 231.615 212.632H242.991C244.175 212.632 245.247 212.168 246.207 211.24ZM239.391 206.728C239.391 207.752 238.783 208.264 237.567 208.264H231.519C231.519 207.304 232.031 206.408 233.055 205.576C234.079 204.712 235.103 204.28 236.127 204.28C237.183 204.28 237.983 204.504 238.527 204.952C239.103 205.4 239.391 205.992 239.391 206.728Z" fill="black"/>
</g>
</svg>
